<svg width="292" height="270" viewBox="0 0 292 270" fill="none" xmlns="http://www.w3.org/2000/svg">
<path d="M22.4615 0H269.538C275.495 0 281.208 2.37053 285.421 6.5901C289.633 10.8097 292 16.5326 292 22.5V247.5C292.025 251.789 290.815 255.994 288.514 259.61C286.213 263.227 282.919 266.102 279.028 267.891C276.054 269.274 272.817 269.993 269.538 270C264.265 269.987 259.167 268.104 255.149 264.684L255.022 264.586L209.173 225H22.4615C16.5043 225 10.7912 222.629 6.57882 218.41C2.36647 214.19 -1.1737e-05 208.467 -1.1737e-05 202.5V22.5C-1.1737e-05 16.5326 2.36647 10.8097 6.57882 6.5901C10.7912 2.37053 16.5043 0 22.4615 0ZM22.4615 202.5H213.384C216.081 202.501 218.687 203.475 220.726 205.242L269.538 247.5V22.5H22.4615V202.5ZM202.154 90C202.154 87.0163 200.97 84.1548 198.864 82.0451C196.758 79.9353 193.901 78.75 190.923 78.75H101.077C98.0982 78.75 95.2416 79.9353 93.1354 82.0451C91.0293 84.1548 89.846 87.0163 89.846 90C89.846 92.9837 91.0293 95.8452 93.1354 97.9549C95.2416 100.065 98.0982 101.25 101.077 101.25H190.923C193.901 101.25 196.758 100.065 198.864 97.9549C200.97 95.8452 202.154 92.9837 202.154 90ZM202.154 135C202.154 132.016 200.97 129.155 198.864 127.045C196.758 124.935 193.901 123.75 190.923 123.75H101.077C98.0982 123.75 95.2416 124.935 93.1354 127.045C91.0293 129.155 89.846 132.016 89.846 135C89.846 137.984 91.0293 140.845 93.1354 142.955C95.2416 145.065 98.0982 146.25 101.077 146.25H190.923C193.901 146.25 196.758 145.065 198.864 142.955C200.97 140.845 202.154 137.984 202.154 135Z" fill="#35353E"/>
</svg>
