<svg width="322" height="282" viewBox="0 0 322 282" fill="none" xmlns="http://www.w3.org/2000/svg">
<path d="M232.875 0C203.191 0 177.201 13.0456 161 35.0967C144.799 13.0456 118.809 0 89.125 0C65.4958 0.0272185 42.8419 9.63228 26.1335 26.7079C9.42512 43.7836 0.0266331 66.9354 0 91.084C0 193.921 149.198 277.16 155.552 280.597C157.227 281.518 159.098 282 161 282C162.902 282 164.773 281.518 166.448 280.597C172.802 277.16 322 193.921 322 91.084C321.973 66.9354 312.575 43.7836 295.866 26.7079C279.158 9.63228 256.504 0.0272185 232.875 0ZM161 256.798C134.751 241.167 23 169.96 23 91.084C23.0228 73.1682 29.9969 55.9929 42.3928 43.3246C54.7887 30.6562 71.5946 23.5289 89.125 23.5055C117.084 23.5055 140.559 38.7254 150.363 63.1711C151.229 65.3267 152.703 67.1704 154.597 68.4679C156.491 69.7655 158.72 70.4582 161 70.4582C163.28 70.4582 165.509 69.7655 167.403 68.4679C169.297 67.1704 170.771 65.3267 171.637 63.1711C181.441 38.6813 204.916 23.5055 232.875 23.5055C250.405 23.5289 267.211 30.6562 279.607 43.3246C292.003 55.9929 298.977 73.1682 299 91.084C299 169.842 187.22 241.152 161 256.798Z" fill="#35353E"/>
</svg>
