<svg width="322" height="282" viewBox="0 0 322 282" fill="none" xmlns="http://www.w3.org/2000/svg">
<path d="M322 91.084C322 193.921 172.802 277.16 166.448 280.597C164.773 281.518 162.902 282 161 282C159.098 282 157.227 281.518 155.552 280.597C149.198 277.16 0 193.921 0 91.084C0.0266331 66.9354 9.42512 43.7836 26.1335 26.7079C42.8419 9.63228 65.4958 0.0272185 89.125 0C118.809 0 144.799 13.0456 161 35.0967C177.201 13.0456 203.191 0 232.875 0C256.504 0.0272185 279.158 9.63228 295.866 26.7079C312.575 43.7836 321.973 66.9354 322 91.084Z" fill="#E76A6A"/>
</svg>
